# xmcd
#
# Track frame offsets: 
#        150
#        14052
#        29380
#        43535
#        56857
#        69380
#        83529
#        99195
#        109522
#        128020
#        142840
#
# Disc length: 2132 seconds
#
# Revision: 2
# Processed by: cddbd v1.4PL0 Copyright (c) Steve Scherf et al.
# Submitted via: ExactAudioCopy v0.90a11
#
DISCID=8508520b
DTITLE=Vern Gosdin - 24 Karat Heartache
DYEAR=1997
DGENRE=Country
TTITLE0=The Number
TTITLE1=I'll Understand
TTITLE2=24 Karat Heartache
TTITLE3=Three Or Four Times A Day
TTITLE4=All The Way Through
TTITLE5=Runnin' Out Of Reason To Leave
TTITLE6=Who I Came Here To Forget
TTITLE7=The Wettest Dry Country
TTITLE8=What I Threw Away
TTITLE9=I'm Where A Memory (Can Die For A Night)
TTITLE10=Where Do We Take It From Here
EXTD=
EXTT0=
EXTT1=
EXTT2=
EXTT3=
EXTT4=
EXTT5=
EXTT6=
EXTT7=
EXTT8=
EXTT9=
EXTT10=
PLAYORDER=
